<?xml version="1.0" encoding="utf-8"?>
<!-- Generator: Adobe Illustrator 18.0.0, SVG Export Plug-In . SVG Version: 6.00 Build 0)  -->
<!DOCTYPE svg PUBLIC "-//W3C//DTD SVG 1.1//EN" "http://www.w3.org/Graphics/SVG/1.1/DTD/svg11.dtd">
<svg version="1.1" id="Layer_1" xmlns:sketch="http://www.bohemiancoding.com/sketch/ns"
	 xmlns="http://www.w3.org/2000/svg" xmlns:xlink="http://www.w3.org/1999/xlink" x="0px" y="0px" viewBox="0 0 361 361"
	 enable-background="new 0 0 361 361" xml:space="preserve">
<title>Rectangle 12 + Rectangle 12 + Rectangle 14</title>
<desc>Created with Sketch.</desc>
<path id="Rectangle-13" sketch:type="MSShapeGroup" fill="#D8D8D8" d="M76.5,152.5L76.5,152.5c0-5.5,4.9-10,11-10h193
	c6.1,0,11,4.5,11,10l0,0c0,5.5-4.9,10-11,10h-193C81.4,162.5,76.5,158,76.5,152.5z"/>
<path id="Rectangle-14" sketch:type="MSShapeGroup" fill="#D8D8D8" d="M76.5,202.5L76.5,202.5c0-5.5,4.9-10,11-10h193
	c6.1,0,11,4.5,11,10l0,0c0,5.5-4.9,10-11,10h-193C81.4,212.5,76.5,208,76.5,202.5z"/>
</svg>
