<?xml version="1.0" encoding="utf-8"?>
<!-- Generator: Adobe Illustrator 18.0.0, SVG Export Plug-In . SVG Version: 6.00 Build 0)  -->
<!DOCTYPE svg PUBLIC "-//W3C//DTD SVG 1.1//EN" "http://www.w3.org/Graphics/SVG/1.1/DTD/svg11.dtd">
<svg version="1.1" id="Layer_1" xmlns="http://www.w3.org/2000/svg" xmlns:xlink="http://www.w3.org/1999/xlink" x="0px" y="0px"
	 viewBox="0 0 595.3 841.9" enable-background="new 0 0 595.3 841.9" xml:space="preserve">
<g>
	<g>
		<g>
			<path fill="#231F20" d="M554.8,387.6l-66.7,66.7c-3.6,3.6-8.3,4.8-13.1,4.8c-4.8,0-9.5-2.4-13.1-4.8l-66.7-66.7
				c-7.1-7.1-7.1-19,0-26.2c7.1-7.1,19-7.1,26.2,0l35.7,35.7l0,0c0-88.1-71.4-159.5-159.5-159.5c-42.9,0-82.1,16.7-113.1,46.4
				c-7.1,7.1-19,7.1-26.2,0c-7.1-7.1-7.1-19,0-26.2c36.9-36.9,85.7-57.1,138.1-57.1c108.3,0,195.3,88.1,195.3,195.3l0,0l35.7-35.7
				c7.1-7.1,19-7.1,26.2,0C560.8,368.6,560.8,380.5,554.8,387.6z"/>
		</g>
	</g>
	<g>
		<g>
			<path fill="#231F20" d="M435.7,535.2c-36.9,36.9-85.7,57.1-138.1,57.1c-108.3,0-195.3-88.1-195.3-195.3l0,0l-35.7,35.7
				c-7.1,7.1-19,7.1-26.2,0c-7.1-7.1-7.1-19,0-26.2l66.7-66.7c3.6-3.6,8.3-4.8,13.1-4.8c4.8,0,9.5,2.4,13.1,4.8l66.7,66.7
				c7.1,7.1,7.1,19,0,26.2c-3.6,3.6-8.3,4.8-13.1,4.8s-9.5-1.2-13.1-4.8l-35.7-35.7l0,0c0,88.1,71.4,159.5,159.5,159.5
				c42.9,0,82.1-16.7,113.1-46.4c7.1-7.1,19-7.1,26.2,0C442.9,517.4,442.9,528.1,435.7,535.2z"/>
		</g>
	</g>
</g>
</svg>
