<?xml version="1.0" encoding="UTF-8" standalone="no"?>
<svg width="361px" height="361px" viewBox="0 0 361 361" version="1.1" xmlns="http://www.w3.org/2000/svg" xmlns:xlink="http://www.w3.org/1999/xlink" xmlns:sketch="http://www.bohemiancoding.com/sketch/ns">
    <!-- Generator: Sketch 3.2.2 (9983) - http://www.bohemiancoding.com/sketch -->
    <title>Icon</title>
    <desc>Created with Sketch.</desc>
    <defs></defs>
    <g id="Page-1" stroke="none" stroke-width="1" fill="none" fill-rule="evenodd" sketch:type="MSPage">
        <g id="Group" sketch:type="MSLayerGroup">
            <rect id="Rectangle-12" fill="#1E223C" sketch:type="MSShapeGroup" x="0.922851562" y="0.909179688" width="359.336041" height="359.1"></rect>
            <path d="M282.52791,112.832502 L282.6577,96.5315602 L239.34616,139.8431 C235.302758,143.886502 228.817894,143.938136 224.838372,139.958613 C220.858849,135.979091 220.893115,129.47686 224.936517,125.433458 L268.248058,82.1219176 L251.965723,82.2703151 C246.286153,82.3155365 241.726077,77.7554602 241.772539,72.0771304 C241.81776,66.3975602 246.449774,61.7655458 252.129345,61.7203244 L293.231827,61.3930616 C298.890289,61.3292527 303.470213,65.9091769 303.407645,71.5688793 L303.077901,112.668881 C303.031439,118.34721 298.398164,122.980485 292.721095,123.025687 C287.042765,123.072149 282.481448,118.510832 282.52791,112.832502 L282.52791,112.832502 Z" id="Path" fill="#FFFFFF" sketch:type="MSShapeGroup"></path>
            <path d="M275.557091,119.812481 L275.686881,103.51154 L232.37534,146.82308 C228.331938,150.866482 221.847074,150.918115 217.867552,146.938593 C213.888029,142.95907 213.922296,136.456839 217.965698,132.413437 L261.277238,89.101897 L244.994904,89.2502945 C239.315333,89.2955159 234.755257,84.7354396 234.801719,79.0571098 C234.84694,73.3775396 239.478955,68.7455252 245.158525,68.7003038 L286.261007,68.3730411 C291.919469,68.3092321 296.499393,72.8891563 296.436825,78.5488587 L296.107081,119.64886 C296.060619,125.32719 291.427345,129.960465 285.750275,130.005666 C280.071945,130.052128 275.510629,125.490811 275.557091,119.812481 L275.557091,119.812481 Z" id="Path-2" opacity="0.515741604" fill="#FFFFFF" sketch:type="MSShapeGroup"></path>
            <path d="M268.586271,126.792461 L268.716061,110.491519 L225.40452,153.803059 C221.361119,157.846461 214.876255,157.898094 210.896732,153.918572 C206.91721,149.939049 206.951476,143.436819 210.994878,139.393417 L254.306418,96.0818764 L238.024084,96.2302739 C232.344514,96.2754953 227.784437,91.715419 227.830899,86.0370892 C227.876121,80.357519 232.508135,75.7255046 238.187705,75.6802832 L279.290188,75.3530205 C284.948649,75.2892115 289.528574,79.8691357 289.466005,85.5288381 L289.136262,126.628839 C289.0898,132.307169 284.456525,136.940444 278.779455,136.985646 C273.101126,137.032107 268.539809,132.470791 268.586271,126.792461 L268.586271,126.792461 Z" id="Path-3" opacity="0.309468284" fill="#FFFFFF" sketch:type="MSShapeGroup"></path>
            <path d="M261.615451,133.77244 L261.745241,117.471498 L218.433701,160.783039 C214.390299,164.826441 207.905435,164.878074 203.925912,160.898551 C199.94639,156.919029 199.980656,150.416798 204.024058,146.373396 L247.335598,103.061856 L231.053264,103.210253 C225.373694,103.255475 220.813618,98.6953984 220.860079,93.0170686 C220.905301,87.3374984 225.537315,82.705484 231.216885,82.6602626 L272.319368,82.3329999 C277.97783,82.2691909 282.557754,86.8491151 282.495185,92.5088175 L282.165442,133.608819 C282.11898,139.287149 277.485705,143.920423 271.808636,143.965625 C266.130306,144.012087 261.568989,139.45077 261.615451,133.77244 L261.615451,133.77244 Z" id="Path-4" opacity="0.191347948" fill="#FFFFFF" sketch:type="MSShapeGroup"></path>
            <path d="M254.644631,140.75242 L254.774421,124.451478 L211.462881,167.763018 C207.419479,171.80642 200.934615,171.858053 196.955093,167.878531 C192.97557,163.899008 193.009836,157.396777 197.053238,153.353376 L240.364779,110.041835 L224.082444,110.190233 C218.402874,110.235454 213.842798,105.675378 213.88926,99.997048 C213.934481,94.3174778 218.566495,89.6854634 224.246066,89.640242 L265.348548,89.3129793 C271.00701,89.2491703 275.586934,93.8290946 275.524366,99.4887969 L275.194622,140.588798 C275.14816,146.267128 270.514885,150.900403 264.837816,150.945604 C259.159486,150.992066 254.598169,146.430749 254.644631,140.75242 L254.644631,140.75242 Z" id="Path-5" opacity="0.069088153" fill="#FFFFFF" sketch:type="MSShapeGroup"></path>
        </g>
    </g>
</svg>